<svg width="70" height="23" viewBox="0 0 70 23" fill="none" xmlns="http://www.w3.org/2000/svg">
<path d="M62.2446 22.772C60.8143 22.772 59.5373 22.4349 58.4135 21.7606C57.3101 21.0659 56.4418 20.1056 55.8084 18.8796C55.175 17.6332 54.8582 16.1927 54.8582 14.5582C54.8582 12.9031 55.175 11.4626 55.8084 10.2367C56.4418 8.99031 57.3101 8.02999 58.4135 7.35571C59.5373 6.66101 60.8347 6.31366 62.3059 6.31366C63.8383 6.31366 65.1256 6.66101 66.1676 7.35571C67.2301 8.02999 68.0372 8.92901 68.5889 10.0528C69.1405 11.1766 69.4164 12.4025 69.4164 13.7306C69.4164 13.935 69.4164 14.1495 69.4164 14.3743C69.4164 14.599 69.4062 14.8544 69.3857 15.1405H56.7891V13.1483H66.8725C66.8317 11.6567 66.3719 10.5125 65.4933 9.71566C64.6352 8.89836 63.5523 8.48971 62.2446 8.48971C61.3864 8.48971 60.5896 8.69404 59.854 9.10269C59.1184 9.51134 58.5157 10.1141 58.0457 10.911C57.5962 11.6874 57.3714 12.6681 57.3714 13.8532V14.7114C57.3714 15.9986 57.5962 17.0816 58.0457 17.9602C58.5157 18.8388 59.1184 19.5028 59.854 19.9523C60.5896 20.3814 61.3864 20.5959 62.2446 20.5959C63.3684 20.5959 64.2674 20.3712 64.9417 19.9217C65.6159 19.4517 66.1165 18.7979 66.4434 17.9602H68.9873C68.7217 18.8796 68.2824 19.7071 67.6694 20.4427C67.0769 21.1578 66.3208 21.7299 65.4014 22.159C64.5024 22.5677 63.4501 22.772 62.2446 22.772Z" fill="#0EA5E9"/>
<path d="M49.4148 22.4042V6.68141H51.9893V22.4042H49.4148ZM50.7021 3.49395C50.1913 3.49395 49.7622 3.33049 49.4148 3.00357C49.0879 2.65622 48.9245 2.22714 48.9245 1.71633C48.9245 1.20551 49.0879 0.796864 49.4148 0.490378C49.7622 0.163459 50.1913 0 50.7021 0C51.1925 0 51.6113 0.163459 51.9587 0.490378C52.306 0.796864 52.4797 1.20551 52.4797 1.71633C52.4797 2.22714 52.306 2.65622 51.9587 3.00357C51.6113 3.33049 51.1925 3.49395 50.7021 3.49395Z" fill="#0EA5E9"/>
<path d="M43.8591 22.4042C42.817 22.4042 41.9078 22.2407 41.1314 21.9138C40.3754 21.5869 39.7828 21.0454 39.3537 20.2894C38.9247 19.5334 38.7101 18.5118 38.7101 17.2245V10.0527H36.0743V6.95722H38.7101L39.1392 2.88095H42.388V6.95722H46.5868V10.0527H42.388V17.2245C42.388 18.001 42.5514 18.5424 42.8783 18.8489C43.2257 19.135 43.7978 19.278 44.5947 19.278H46.4949V22.4042H43.8591Z" fill="black"/>
<path d="M26.8091 22.4041V5.27153C26.8091 4.08645 27.0032 3.13634 27.3914 2.42121C27.8 1.68564 28.3824 1.15439 29.1384 0.827475C29.8944 0.500556 30.7934 0.337097 31.8354 0.337097H33.6744V3.46326H32.3871C31.7128 3.46326 31.2225 3.60629 30.916 3.89234C30.6299 4.15797 30.4869 4.62791 30.4869 5.30218V22.4041H26.8091ZM24.6024 10.0527V6.95721H33.9808V10.0527H24.6024Z" fill="black"/>
<path d="M18.1149 22.4042V6.95722H21.7928V22.4042H18.1149ZM19.9538 4.50533C19.2796 4.50533 18.7177 4.30101 18.2682 3.89236C17.8391 3.46328 17.6245 2.94225 17.6245 2.32927C17.6245 1.69587 17.8391 1.18506 18.2682 0.796841C18.7177 0.388193 19.2796 0.183868 19.9538 0.183868C20.6281 0.183868 21.1798 0.388193 21.6089 0.796841C22.0584 1.18506 22.2831 1.69587 22.2831 2.32927C22.2831 2.94225 22.0584 3.46328 21.6089 3.89236C21.1798 4.30101 20.6281 4.50533 19.9538 4.50533Z" fill="black"/>
<path d="M7.9993 22.7719C6.44644 22.7719 5.06725 22.4961 3.86173 21.9444C2.65622 21.3928 1.71633 20.6061 1.04205 19.5845C0.367784 18.5629 0.0204325 17.3471 0 15.9373H3.89238C3.89238 16.6524 4.05584 17.296 4.38276 17.8682C4.73011 18.4198 5.20006 18.8591 5.7926 19.186C6.40557 19.513 7.14114 19.6764 7.9993 19.6764C8.73487 19.6764 9.36828 19.5641 9.89952 19.3393C10.4512 19.0941 10.8701 18.757 11.1561 18.3279C11.4626 17.8784 11.6158 17.3573 11.6158 16.7648C11.6158 16.0905 11.4524 15.5389 11.1255 15.1098C10.819 14.6603 10.3899 14.2823 9.83822 13.9758C9.28655 13.6693 8.65314 13.4037 7.93801 13.1789C7.22287 12.9337 6.46687 12.6783 5.67 12.4127C3.97411 11.8406 2.69708 11.1152 1.83892 10.2366C0.980757 9.33761 0.551676 8.14231 0.551676 6.65074C0.551676 5.40436 0.847947 4.33166 1.44049 3.43263C2.03303 2.5336 2.86054 1.8389 3.92303 1.34852C5.00595 0.837711 6.25233 0.582306 7.66217 0.582306C9.09244 0.582306 10.3388 0.837711 11.4013 1.34852C12.4842 1.85933 13.3322 2.57447 13.9451 3.49393C14.5786 4.39296 14.9055 5.47588 14.9259 6.74269H11.0029C10.9824 6.21145 10.8394 5.72107 10.5738 5.27155C10.3082 4.80161 9.91995 4.42361 9.40914 4.13755C8.91876 3.83106 8.31601 3.67782 7.60087 3.67782C6.9879 3.65739 6.43622 3.75955 5.94584 3.98431C5.4759 4.18863 5.0979 4.49512 4.81184 4.90377C4.54622 5.29198 4.41341 5.78236 4.41341 6.37491C4.41341 6.94701 4.536 7.42718 4.78119 7.81539C5.04682 8.18318 5.42481 8.49988 5.91519 8.7655C6.40557 9.01069 6.97768 9.24566 7.63152 9.47042C8.28536 9.69518 9.00049 9.94037 9.77693 10.206C10.8394 10.5533 11.7997 10.9824 12.6579 11.4932C13.5365 11.9836 14.2312 12.6272 14.742 13.4241C15.2528 14.221 15.5082 15.2528 15.5082 16.5196C15.5082 17.623 15.2222 18.6548 14.6501 19.6151C14.078 20.555 13.2402 21.3212 12.1369 21.9138C11.0335 22.4859 9.65433 22.7719 7.9993 22.7719Z" fill="black"/>
</svg>
