<svg width="162" height="162" viewBox="0 0 162 162" fill="none" xmlns="http://www.w3.org/2000/svg">
<rect width="162" height="162" rx="32" fill="black"/>
<path d="M108 125V63.1297H123V125H108ZM115.5 53.309C112.75 53.309 110.458 52.4906 108.625 50.8538C106.875 49.1352 106 47.0483 106 44.5931C106 42.0561 106.875 40.0101 108.625 38.4552C110.458 36.8184 112.75 36 115.5 36C118.25 36 120.5 36.8184 122.25 38.4552C124.083 40.0101 125 42.0561 125 44.5931C125 47.0483 124.083 49.1352 122.25 50.8538C120.5 52.4906 118.25 53.309 115.5 53.309Z" fill="#0EA5E9"/>
<path d="M67.9802 126C61.7721 126 56.2582 124.906 51.4387 122.718C46.6192 120.53 42.8617 117.411 40.166 113.359C37.4704 109.308 36.0817 104.486 36 98.895H51.5613C51.5613 101.731 52.2148 104.284 53.5217 106.552C54.9104 108.74 56.7892 110.483 59.1581 111.779C61.6087 113.076 64.5494 113.724 67.9802 113.724C70.921 113.724 73.4532 113.278 75.5771 112.387C77.7826 111.414 79.4572 110.077 80.6008 108.376C81.8261 106.593 82.4387 104.527 82.4387 102.177C82.4387 99.5028 81.7852 97.3149 80.4783 95.6133C79.253 93.8306 77.5376 92.3315 75.332 91.116C73.1265 89.9006 70.5942 88.8471 67.7352 87.9558C64.8762 86.9834 61.8538 85.9705 58.668 84.9171C51.888 82.6483 46.7826 79.7716 43.3518 76.2873C39.9209 72.7219 38.2055 67.9816 38.2055 62.0663C38.2055 57.1234 39.39 52.8692 41.7589 49.3039C44.1278 45.7385 47.4361 42.9834 51.6838 41.0387C56.0132 39.0129 60.9961 38 66.6324 38C72.3505 38 77.3333 39.0129 81.581 41.0387C85.9104 43.0645 89.3004 45.9006 91.751 49.547C94.2833 53.1123 95.5903 57.407 95.6719 62.4309H79.9881C79.9065 60.3241 79.3347 58.3794 78.2727 56.5967C77.2108 54.733 75.6588 53.2339 73.6166 52.0994C71.6561 50.884 69.2464 50.2762 66.3874 50.2762C63.9368 50.1952 61.7312 50.6004 59.7708 51.4917C57.892 52.302 56.3808 53.5175 55.2372 55.1381C54.1752 56.6777 53.6443 58.6225 53.6443 60.9724C53.6443 63.2413 54.1344 65.1455 55.1146 66.6851C56.1766 68.1436 57.6877 69.3996 59.6482 70.453C61.6087 71.4254 63.8959 72.3573 66.5099 73.2486C69.1238 74.14 71.9829 75.1123 75.087 76.1657C79.3347 77.5433 83.1739 79.2449 86.6047 81.2707C90.1173 83.2155 92.8946 85.768 94.9368 88.9282C96.9789 92.0884 98 96.1805 98 101.204C98 105.58 96.8564 109.672 94.5692 113.481C92.282 117.208 88.9328 120.247 84.5217 122.597C80.1107 124.866 74.5968 126 67.9802 126Z" fill="white"/>
</svg>
