<svg width="162" height="162" viewBox="0 0 162 162" fill="none" xmlns="http://www.w3.org/2000/svg">
<rect width="162" height="162" rx="32" fill="#06212E"/>
<path d="M114.421 134V58.9214H132.579V134H114.421ZM123.5 47.0041C120.171 47.0041 117.397 46.011 115.178 44.0248C113.059 41.9393 112 39.4069 112 36.4276C112 33.349 113.059 30.8662 115.178 28.9793C117.397 26.9931 120.171 26 123.5 26C126.829 26 129.553 26.9931 131.671 28.9793C133.89 30.8662 135 33.349 135 36.4276C135 39.4069 133.89 41.9393 131.671 44.0248C129.553 46.011 126.829 47.0041 123.5 47.0041Z" fill="#0EA5E9"/>
<path d="M65.6858 135C58.1759 135 51.5059 133.67 45.6759 131.01C39.8459 128.349 35.3004 124.556 32.0395 119.63C28.7787 114.703 27.0988 108.841 27 102.043H45.8241C45.8241 105.491 46.6146 108.595 48.1957 111.354C49.8755 114.014 52.1482 116.132 55.0138 117.709C57.9783 119.285 61.5356 120.073 65.6858 120.073C69.2431 120.073 72.3063 119.531 74.8755 118.448C77.5435 117.265 79.5692 115.64 80.9526 113.57C82.4348 111.403 83.1759 108.89 83.1759 106.033C83.1759 102.782 82.3854 100.122 80.8044 98.0525C79.3221 95.8849 77.247 94.0622 74.5791 92.5843C71.9111 91.1064 68.8478 89.8255 65.3893 88.7417C61.9308 87.5594 58.2747 86.3278 54.4209 85.047C46.2194 82.2882 40.0435 78.7905 35.8933 74.5539C31.7431 70.2187 29.668 64.4549 29.668 57.2624C29.668 51.2523 31.1008 46.0796 33.9664 41.7445C36.832 37.4093 40.834 34.0594 45.9723 31.6947C51.2095 29.2316 57.2372 28 64.0553 28C70.9723 28 77 29.2316 82.1383 31.6947C87.3755 34.1579 91.4763 37.6064 94.4407 42.0401C97.504 46.3752 99.085 51.5971 99.1838 57.7058H80.2115C80.1127 55.1441 79.421 52.7795 78.1364 50.6119C76.8518 48.3458 74.9743 46.523 72.504 45.1436C70.1324 43.6657 67.2174 42.9268 63.7589 42.9268C60.7945 42.8283 58.1265 43.3209 55.7549 44.4047C53.4822 45.39 51.6542 46.8679 50.2708 48.8384C48.9862 50.7104 48.3439 53.075 48.3439 55.9323C48.3439 58.6911 48.9368 61.0064 50.1225 62.8785C51.4071 64.6519 53.2352 66.1791 55.6067 67.4599C57.9783 68.6423 60.7451 69.7753 63.9071 70.8591C67.0692 71.9429 70.5277 73.1252 74.2826 74.4061C79.4209 76.081 84.0652 78.1501 88.2154 80.6133C92.4644 82.9779 95.8241 86.0815 98.2945 89.924C100.765 93.7666 102 98.7422 102 104.851C102 110.171 100.617 115.147 97.8498 119.778C95.083 124.31 91.0316 128.005 85.6957 130.862C80.3597 133.621 73.6897 135 65.6858 135Z" fill="white"/>
</svg>
