<svg width="72" height="23" viewBox="0 0 72 23" fill="none" xmlns="http://www.w3.org/2000/svg">
<path d="M64.0727 22.9336C62.5168 22.9336 61.1476 22.6017 59.9652 21.9378C58.7827 21.2533 57.8596 20.299 57.1957 19.075C56.5319 17.8511 56.2 16.4404 56.2 14.8431C56.2 13.1835 56.5215 11.7313 57.1646 10.4866C57.8285 9.24193 58.7516 8.26692 59.9341 7.56159C61.1373 6.85626 62.5272 6.5036 64.1038 6.5036C65.6389 6.5036 66.977 6.84589 68.118 7.53048C69.2589 8.21506 70.1406 9.13821 70.7629 10.2999C71.3853 11.4409 71.6965 12.7271 71.6965 14.1585C71.6965 14.3659 71.6965 14.5941 71.6965 14.8431C71.6965 15.092 71.6757 15.3513 71.6342 15.621H58.8761V13.225H67.9312C67.8898 12.084 67.506 11.192 66.7799 10.5489C66.0538 9.88503 65.1514 9.55311 64.0727 9.55311C63.3051 9.55311 62.5998 9.72944 61.9567 10.0821C61.3136 10.4348 60.8054 10.9638 60.4319 11.6691C60.0585 12.3537 59.8718 13.225 59.8718 14.283V15.1854C59.8718 16.1604 60.0482 17.0005 60.4008 17.7059C60.7742 18.4112 61.2721 18.9506 61.8945 19.324C62.5376 19.6766 63.2533 19.853 64.0416 19.853C64.9129 19.853 65.6286 19.6663 66.1887 19.2929C66.7695 18.9194 67.1948 18.4216 67.4645 17.7992H71.2608C70.9704 18.7742 70.4932 19.6559 69.8294 20.4442C69.1656 21.2118 68.3461 21.8237 67.3711 22.2801C66.3961 22.7158 65.2966 22.9336 64.0727 22.9336Z" fill="#0EA5E9"/>
<path d="M50.0979 22.5601V6.87695H53.8319V22.5601H50.0979ZM51.9649 4.38755C51.2803 4.38755 50.7098 4.18011 50.2534 3.76521C49.8178 3.32956 49.6 2.80057 49.6 2.17822C49.6 1.53512 49.8178 1.0165 50.2534 0.622348C50.7098 0.207449 51.2803 0 51.9649 0C52.6495 0 53.2096 0.207449 53.6452 0.622348C54.1016 1.0165 54.3298 1.53512 54.3298 2.17822C54.3298 2.80057 54.1016 3.32956 53.6452 3.76521C53.2096 4.18011 52.6495 4.38755 51.9649 4.38755Z" fill="#0EA5E9"/>
<path d="M44.8038 22.5601C43.7458 22.5601 42.8227 22.3942 42.0344 22.0623C41.2668 21.7303 40.6652 21.1806 40.2296 20.413C39.7939 19.6455 39.5761 18.6082 39.5761 17.3013V10.0198H36.9V6.87696H39.5761L40.0117 2.73834H43.3102V6.87696H47.5733V10.0198H43.3102V17.3013C43.3102 18.0896 43.4761 18.6393 43.8081 18.9505C44.1607 19.2409 44.7416 19.3862 45.5506 19.3862H47.4799V22.5601H44.8038Z" fill="white"/>
<path d="M27.0404 22.5601V5.16548C27.0404 3.96227 27.2375 2.99763 27.6317 2.27156C28.0466 1.52474 28.6378 0.985376 29.4054 0.653456C30.1729 0.321538 31.0857 0.155579 32.1437 0.155579H34.0107V3.32955H32.7038C32.0192 3.32955 31.5213 3.47477 31.2102 3.7652C30.9197 4.03488 30.7745 4.51202 30.7745 5.1966V22.5601H27.0404ZM24.8 10.0198V6.87694H34.3219V10.0198H24.8Z" fill="white"/>
<path d="M18.3979 22.5601V6.87695H22.132V22.5601H18.3979ZM20.2649 4.38755C19.5803 4.38755 19.0098 4.18011 18.5535 3.76521C18.1178 3.32956 17.9 2.80057 17.9 2.17822C17.9 1.53512 18.1178 1.0165 18.5535 0.622348C19.0098 0.207449 19.5803 0 20.2649 0C20.9495 0 21.5096 0.207449 21.9453 0.622348C22.4016 1.0165 22.6298 1.53512 22.6298 2.17822C22.6298 2.80057 22.4016 3.32956 21.9453 3.76521C21.5096 4.18011 20.9495 4.38755 20.2649 4.38755Z" fill="white"/>
<path d="M8.12164 22.9335C6.54503 22.9335 5.14474 22.6535 3.92079 22.0934C2.69684 21.5333 1.74257 20.7346 1.05799 19.6973C0.373409 18.6601 0.020745 17.4258 0 15.9944H3.95191C3.95191 16.7204 4.11787 17.3739 4.44979 17.9548C4.80245 18.5149 5.27959 18.9609 5.88119 19.2928C6.50354 19.6247 7.25036 19.7907 8.12164 19.7907C8.86846 19.7907 9.51155 19.6766 10.0509 19.4484C10.611 19.1995 11.0363 18.8572 11.3267 18.4215C11.6379 17.9651 11.7935 17.4361 11.7935 16.8345C11.7935 16.15 11.6275 15.5898 11.2956 15.1542C10.9844 14.6978 10.5488 14.314 9.98869 14.0028C9.42857 13.6917 8.78548 13.422 8.05941 13.1938C7.33334 12.9449 6.56577 12.6855 5.75672 12.4159C4.03489 11.835 2.73833 11.0986 1.86704 10.2065C0.995757 9.29375 0.560113 8.08017 0.560113 6.56579C0.560113 5.30035 0.860915 4.21124 1.46252 3.29846C2.06412 2.38568 2.90429 1.68035 3.98303 1.18248C5.08251 0.663853 6.34795 0.404541 7.77935 0.404541C9.2315 0.404541 10.4969 0.663853 11.5757 1.18248C12.6752 1.7011 13.5361 2.42717 14.1584 3.36069C14.8015 4.27347 15.1334 5.37295 15.1542 6.65914H11.1711C11.1504 6.11977 11.0052 5.62189 10.7355 5.1655C10.4658 4.68837 10.0717 4.30459 9.55305 4.01416C9.05517 3.70299 8.44319 3.5474 7.71712 3.5474C7.09477 3.52665 6.53466 3.63038 6.03678 3.85857C5.55964 4.06602 5.17586 4.3772 4.88543 4.7921C4.61575 5.18625 4.48091 5.68413 4.48091 6.28573C4.48091 6.86659 4.60538 7.3541 4.85432 7.74825C5.124 8.12166 5.50778 8.4432 6.00566 8.71289C6.50354 8.96183 7.0844 9.2004 7.74823 9.42859C8.41207 9.65678 9.13814 9.90572 9.92645 10.1754C11.0052 10.5281 11.9802 10.9637 12.8515 11.4823C13.7435 11.9802 14.4489 12.6337 14.9675 13.4427C15.4861 14.2518 15.7454 15.2994 15.7454 16.5856C15.7454 17.7058 15.455 18.7534 14.8741 19.7285C14.2933 20.6827 13.4427 21.4607 12.3225 22.0623C11.2023 22.6431 9.80198 22.9335 8.12164 22.9335Z" fill="white"/>
</svg>
